<?xml version="1.0" encoding="utf-8"?>
<!-- Generator: Adobe Illustrator 23.0.3, SVG Export Plug-In . SVG Version: 6.00 Build 0)  -->
<svg version="1.1" id="Layer_1" xmlns="http://www.w3.org/2000/svg" xmlns:xlink="http://www.w3.org/1999/xlink" x="0px" y="0px"
	 viewBox="0 0 115.7 115.7" style="enable-background:new 0 0 115.7 115.7;" xml:space="preserve">
<style type="text/css">
	.st0{fill:#1A3755;}
	.st1{fill:#90A03C;}
	.st2{fill:#F16A25;}
	.st3{fill:#0C83C6;}
</style>
<path class="st0" d="M98.8,16.9C88.3,6.5,73.8,0,57.9,0c-16,0-30.4,6.5-40.9,16.9C6.5,27.4,0,41.9,0,57.8s6.5,30.4,16.9,40.9
	c10.5,10.5,24.9,16.9,40.9,16.9s30.4-6.5,40.9-16.9c10.5-10.5,16.9-24.9,16.9-40.9S109.2,27.4,98.8,16.9z M33.2,99.3
	c0,0.2-0.1,0.4-0.1,0.6c0,0.2-0.1,0.3-0.1,0.5c0,0.2-0.1,0.3-0.1,0.5c0,0,0,0,0,0.1c0,0.2-0.1,0.4-0.1,0.6c0,0,0,0.1,0,0.1
	c0,0.1,0,0.1,0,0.2c0,0.1,0,0.1,0,0.2c0,0.1-0.1,0.3-0.1,0.4c0,0.2-0.1,0.4-0.1,0.5c0,0.1,0,0.2-0.1,0.3c0,0.1,0,0.2-0.1,0.3
	c0-0.1,0-0.2,0-0.3c-2.8-1.6-5.4-3.4-7.9-5.4c0.6,0,1.1-0.1,1.7-0.1c1.7,0,3.3,0.2,4.8,0.6c0.8,0.2,1.6,0.4,2.4,0.7
	C33.2,99.2,33.2,99.2,33.2,99.3z M36.5,90c-0.2,0.3-0.3,0.7-0.4,1c0,0.1-0.1,0.2-0.1,0.3c-0.2,0.4-0.3,0.7-0.5,1.1
	c-0.2,0.4-0.3,0.8-0.5,1.2c-0.1,0.2-0.2,0.4-0.2,0.6c0.1-0.2,0.1-0.4,0.2-0.6c-0.9-0.3-1.8-0.6-2.7-0.8c-2-0.5-4-0.7-6.1-0.7
	c-2.3,0-4.6,0.3-6.8,0.9c-2.5-2.7-4.7-5.7-6.6-8.9c-1-1.6-1.8-3.3-2.6-5.1c-1.4-3.1-2.4-6.3-3.2-9.6c5.9-2.3,12.4-3.6,19.2-3.6
	c4.9,0,9.7,0.7,14.1,1.9c3.4,0.9,6.6,2.2,9.6,3.8c0,0,0,0,0,0c-2.6,2.4-5,5-7.1,7.9h0c-1.4,1.9-2.7,3.8-3.9,5.9
	c-0.2,0.4-0.4,0.8-0.6,1.2c0,0,0,0,0,0c-0.4,0.8-0.8,1.6-1.2,2.4C36.8,89.2,36.6,89.6,36.5,90z M94.7,94.7
	c-6.7,6.7-15.3,11.6-24.9,13.9c0.9-3.5,2.7-6.6,5.2-9c3.6-3.6,8.7-5.9,14.2-5.9c2,0,3.9,0.3,5.7,0.8C94.8,94.6,94.8,94.7,94.7,94.7z
	 M106.9,75.7c-0.7,1.8-1.4,3.5-2.2,5.2c-1.6,3.2-3.5,6.2-5.7,9c-3-1.2-6.3-1.9-9.8-1.9c-7.1,0-13.6,2.9-18.2,7.5
	c-3.7,3.7-6.3,8.6-7.2,14.1c-1.9,0.2-3.9,0.3-5.9,0.3c-1.6,0-3.2-0.1-4.8-0.2c-1.9-0.2-3.8-0.4-5.6-0.8c-3.4-0.7-6.7-1.7-9.8-3
	c0,0,0,0,0,0v0c0,0,0-0.1,0-0.1l0-0.1c0-0.2,0.1-0.4,0.1-0.6c0-0.2,0.1-0.4,0.1-0.5c0,0,0,0,0-0.1c0-0.1,0-0.1,0-0.2
	c0-0.2,0.1-0.4,0.1-0.7c0.1-0.4,0.2-0.9,0.3-1.3c0-0.2,0.1-0.5,0.2-0.7c0.1-0.6,0.3-1.2,0.5-1.8c0.1-0.2,0.1-0.4,0.2-0.6
	c0-0.1,0-0.1,0-0.2c0-0.1,0.1-0.2,0.1-0.3c0-0.1,0-0.1,0-0.2c0-0.1,0-0.2,0.1-0.2c0.1-0.3,0.2-0.6,0.3-0.8c0.4-1.2,0.9-2.5,1.4-3.7
	c0.2-0.6,0.5-1.2,0.8-1.8c0.1-0.3,0.2-0.5,0.4-0.8c0,0,0-0.1,0.1-0.1c0.1-0.3,0.3-0.6,0.5-0.9c0.1-0.2,0.2-0.4,0.3-0.7
	c0.2-0.3,0.4-0.7,0.5-1c0.1-0.2,0.2-0.4,0.4-0.6c0.1-0.2,0.2-0.4,0.4-0.6c0.2-0.3,0.3-0.5,0.5-0.8c0.3-0.4,0.5-0.8,0.8-1.2
	c0.1-0.2,0.2-0.3,0.3-0.5c0,0,0-0.1,0.1-0.1c0.6-0.9,1.3-1.8,2-2.7c0.2-0.3,0.4-0.6,0.7-0.9c0.5-0.6,0.9-1.1,1.4-1.7
	c0.2-0.2,0.4-0.4,0.6-0.6c0.1-0.1,0.2-0.2,0.3-0.4c0.2-0.2,0.3-0.3,0.5-0.5c0.3-0.3,0.6-0.6,0.9-0.9c0.6-0.6,1.2-1.2,1.8-1.7
	c0.2-0.2,0.4-0.4,0.7-0.6c0.1-0.1,0.3-0.2,0.4-0.3c0.3-0.2,0.5-0.4,0.8-0.6c0,0,0.1-0.1,0.1-0.1c0.2-0.1,0.3-0.3,0.5-0.4l0.4-0.3
	c8.9-7,20.1-11.2,32.3-11.2c7.2,0,14,1.4,20.2,4.1C108.9,69.2,108,72.5,106.9,75.7z M92.9,56.1C91.7,56,90.5,56,89.2,56
	c-0.7,0-1.3,0-2,0C75,56.4,63.7,60.6,54.5,67.5c-4-2.2-8.3-4-12.8-5.3c-4.4-1.2-8.9-2-13.6-2.1c-0.7,0-1.3,0-2,0
	c-1.2,0-2.5,0-3.7,0.1c-5.7,0.4-11.3,1.6-16.4,3.5c-0.2-1.9-0.3-3.8-0.3-5.8c0-6.1,1-12,3-17.4l15.5,6.5c0.6-1.8,1.3-3.6,2.2-5.2
	l-15.5-6.5C13,30.8,15.8,26.7,19,23L30.9,35c0.6-0.7,1.2-1.4,1.9-2c0.7-0.7,1.4-1.4,2.2-2L23,19c3.7-3.4,7.9-6.2,12.5-8.3l6.3,15.7
	c1.7-0.8,3.4-1.6,5.3-2.1L40.8,8.6c4.4-1.5,9.1-2.5,14-2.8v17c0.9-0.1,1.9-0.1,2.8-0.1s1.9,0,2.8,0.1v-17C65.6,6,70.6,7,75.2,8.6
	l-6.6,15.7c1.8,0.6,3.6,1.3,5.2,2.2l6.6-15.8c4.5,2.2,8.7,5,12.4,8.3l-12.1,12c0.7,0.6,1.3,1.2,2,1.8c0.7,0.7,1.4,1.4,2,2.2l12.1-12
	c3.3,3.7,6,7.8,8.2,12.3L89.2,42c0.9,1.7,1.6,3.4,2.2,5.2l15.8-6.5c1.9,5.4,2.9,11.1,2.9,17.1c0,0.7,0,1.3,0,2
	C104.6,57.7,98.9,56.5,92.9,56.1z"/>
<path class="st1" d="M106.9,75.7c-0.7,1.8-1.4,3.5-2.2,5.2c-4.7-2.2-9.9-3.4-15.4-3.4c-10,0-19.1,4.1-25.7,10.6
	c-5.7,5.7-9.5,13.2-10.4,21.7c-1.9-0.2-3.8-0.4-5.6-0.8c1.1-9.7,5.5-18.3,12-24.9c7.6-7.6,18.1-12.3,29.7-12.3
	C95.5,71.8,101.5,73.2,106.9,75.7z"/>
<path class="st2" d="M92.9,56.1C91.7,56,90.5,56,89.2,56c-0.7,0-1.3,0-2,0c-0.5-7.4-3.7-14.1-8.6-19c-5.4-5.4-12.8-8.7-20.9-8.7
	c-8.2,0-15.6,3.3-20.9,8.7c-5.4,5.4-8.7,12.8-8.7,20.9c0,0.7,0,1.4,0.1,2.1c-0.7,0-1.3,0-2,0c-1.2,0-2.5,0-3.7,0.1
	c0-0.7-0.1-1.5-0.1-2.2c0-3.8,0.6-7.6,1.8-11c0.6-1.8,1.3-3.6,2.2-5.2c1.3-2.4,2.8-4.7,4.5-6.7c0.6-0.7,1.2-1.4,1.9-2
	c0.7-0.7,1.4-1.4,2.2-2c2.1-1.8,4.5-3.4,7-4.6c1.7-0.8,3.4-1.6,5.3-2.1c2.5-0.8,5-1.3,7.7-1.5c0.9-0.1,1.9-0.1,2.8-0.1
	s1.9,0,2.8,0.1c2.8,0.2,5.5,0.8,8.1,1.6c1.8,0.6,3.6,1.3,5.2,2.2c2.5,1.3,4.8,2.8,6.8,4.6c0.7,0.6,1.3,1.2,2,1.8
	c0.7,0.7,1.4,1.4,2,2.2c1.7,2.1,3.3,4.3,4.5,6.8c0.9,1.7,1.6,3.4,2.2,5.2C92.2,50,92.8,53,92.9,56.1z"/>
<path class="st3" d="M38.9,85.2c0.2-0.4,0.4-0.7,0.6-1.1c-1.6-0.6-3.3-1.2-5-1.6c-2.7-0.6-5.5-1-8.4-1c-4.7,0-9.2,0.9-13.4,2.5
	c-1-1.6-1.8-3.3-2.6-5.1c4.9-2,10.3-3.1,16-3.1c3.3,0,6.6,0.4,9.7,1.1c2.4,0.6,4.7,1.3,7,2.3C41.4,81.2,40.1,83.2,38.9,85.2z"/>
</svg>
