<?xml version="1.0" encoding="iso-8859-1"?>
<!-- Generator: Adobe Illustrator 19.0.0, SVG Export Plug-In . SVG Version: 6.00 Build 0)  -->
<svg version="1.1" id="Capa_1" xmlns="http://www.w3.org/2000/svg" xmlns:xlink="http://www.w3.org/1999/xlink" x="0px" y="0px"
	 viewBox="0 0 511.998 511.998" style="enable-background:new 0 0 511.998 511.998;" xml:space="preserve">
<path style="fill:#D8FB93;" d="M52.116,202.451L381.165,12.474c8.782-5.07,20.012-2.061,25.081,6.721l93.284,161.574
	c5.07,8.782,2.061,20.012-6.721,25.081L163.76,395.826c-8.782,5.07-20.012,2.061-25.081-6.721L45.395,227.532
	C40.325,218.75,43.334,207.521,52.116,202.451z"/>
<g>
	<path style="fill:#A0E557;" d="M406.246,19.194c-5.07-8.782-16.3-11.791-25.081-6.721l-29.34,16.94v3.178l0,0
		c14.036,24.311,45.122,32.64,69.434,18.605l0,0l1.786-2.907L406.246,19.194z"/>
	<path style="fill:#A0E557;" d="M492.81,205.575c8.782-5.07,11.791-16.3,6.721-25.081l-16.94-29.34h-3.178l0,0
		c-24.311,14.036-32.64,45.122-18.605,69.434l0,0l2.907,1.786L492.81,205.575z"/>
	<path style="fill:#A0E557;" d="M29.726,210.747l367.007-98.339c9.795-2.625,19.863,3.188,22.488,12.983l48.288,180.211
		c2.625,9.795-3.188,19.863-12.983,22.488L87.518,426.428c-9.795,2.625-19.863-3.188-22.488-12.983L16.743,233.234
		C14.118,223.44,19.931,213.371,29.726,210.747z"/>
</g>
<g>
	<path style="fill:#D8FB93;" d="M419.221,125.391c-2.625-9.795-12.693-15.608-22.488-12.983l-31.055,8.321l-2.492,3.517l0,0
		c7.266,27.115,35.137,43.207,62.253,35.941l2.36-2.783L419.221,125.391z"/>
	<path style="fill:#D8FB93;" d="M28.365,434.002h379.954c10.141,0,18.361-8.221,18.361-18.361V229.072
		c0-10.141-8.221-18.361-18.361-18.361H28.365c-10.141,0-18.361,8.221-18.361,18.361v186.569
		C10.004,425.781,18.224,434.002,28.365,434.002z"/>
</g>
<path style="fill:#FFFFFF;" d="M218.341,382.355c-33.136,0-59.999-26.862-59.999-59.999s26.862-59.999,59.999-59.999
	s59.999,26.862,59.999,59.999S251.478,382.355,218.341,382.355z"/>
<g>
	<path style="fill:#A0E557;" d="M10.004,264.541L10.004,264.541v-33.932c0-10.989,8.908-19.897,19.897-19.897h33.932l0,0
		C63.832,240.44,39.733,264.541,10.004,264.541z"/>
	<path style="fill:#A0E557;" d="M10.004,380.173L10.004,380.173v33.932c0,10.989,8.908,19.897,19.897,19.897h33.932l0,0
		C63.832,404.273,39.733,380.173,10.004,380.173z"/>
	<path style="fill:#A0E557;" d="M426.68,264.541L426.68,264.541v-33.932c0-10.989-8.908-19.897-19.897-19.897h-33.932l0,0
		C372.851,240.44,396.95,264.541,426.68,264.541z"/>
	<path style="fill:#A0E557;" d="M426.68,380.173L426.68,380.173v33.932c0,10.989-8.908,19.897-19.897,19.897h-33.932l0,0
		C372.851,404.273,396.95,380.173,426.68,380.173z"/>
	<path style="fill:#A0E557;" d="M218.341,382.355c-33.136,0-59.999-26.862-59.999-59.999s26.862-59.999,59.999-59.999
		s59.999,26.862,59.999,59.999S251.478,382.355,218.341,382.355z"/>
</g>
<circle style="fill:#FFB954;" cx="409.99" cy="410.002" r="91.998"/>
<path d="M184.82,178.157c1.87-1.869,2.93-4.439,2.93-7.069c0-2.641-1.06-5.21-2.93-7.08c-1.86-1.86-4.44-2.92-7.07-2.92
	s-5.21,1.06-7.07,2.92c-1.86,1.87-2.93,4.439-2.93,7.08c0,2.63,1.07,5.21,2.93,7.069c1.86,1.86,4.44,2.931,7.07,2.931
	S182.96,180.017,184.82,178.157z"/>
<path d="M278.338,424.002c-2.63,0-5.21,1.069-7.07,2.93c-1.86,1.86-2.93,4.44-2.93,7.07s1.07,5.21,2.93,7.069
	c1.86,1.86,4.44,2.931,7.07,2.931c2.64,0,5.21-1.07,7.07-2.931c1.86-1.859,2.93-4.439,2.93-7.069s-1.07-5.21-2.93-7.07
	C283.548,425.071,280.978,424.002,278.338,424.002z"/>
<path d="M218.342,252.358c-38.597,0-69.999,31.401-69.999,69.999s31.401,69.999,69.999,69.999s69.999-31.401,69.999-69.999
	S256.939,252.358,218.342,252.358z M218.342,372.355c-27.569,0-49.999-22.43-49.999-49.999c0-27.569,22.43-49.999,49.999-49.999
	s49.999,22.43,49.999,49.999C268.341,349.926,245.911,372.355,218.342,372.355z"/>
<path d="M409.995,380.726c6.533,0,11.848,4.409,11.848,9.828c0,5.522,4.477,10,10,10s10-4.478,10-10
	c0-13.176-9.172-24.375-21.848-28.312v-0.521c0-5.522-4.477-10-10-10s-10,4.478-10,10v0.521
	c-12.676,3.938-21.848,15.138-21.848,28.312c0,16.447,14.287,29.827,31.847,29.827c6.533,0,11.848,4.409,11.848,9.828
	s-5.315,9.827-11.848,9.827c-6.533,0-11.848-4.408-11.848-9.827c0-5.522-4.477-10-10-10c-5.523,0-10,4.478-10,10
	c0,13.179,9.178,24.381,21.86,28.315c0.129,5.41,4.546,9.759,9.988,9.759s9.859-4.349,9.988-9.759
	c12.682-3.934,21.86-15.137,21.86-28.315c0-16.447-14.287-29.827-31.847-29.827c-6.533,0-11.848-4.409-11.848-9.828
	S403.463,380.726,409.995,380.726z"/>
<path d="M436.678,311.553V229.18l21.171,79.009c1.197,4.468,5.237,7.415,9.653,7.415c0.856,0,1.728-0.111,2.595-0.344
	c5.334-1.43,8.5-6.913,7.071-12.247l-17.772-66.327l38.415-22.179c13.543-7.819,18.2-25.198,10.381-38.741L414.906,14.194
	c-3.788-6.561-9.904-11.254-17.221-13.214c-7.317-1.964-14.961-0.956-21.521,2.833L87.849,170.273
	c-4.783,2.762-6.422,8.877-3.66,13.66c2.761,4.782,8.877,6.42,13.66,3.66L347.167,43.648c11.73,15.678,30.032,24.345,48.779,24.345
	c8.099,0,16.279-1.625,24.045-4.991l48.474,83.958c-5.818,4.324-10.857,9.669-14.78,15.727c-3.001,4.637-1.676,10.828,2.96,13.829
	c1.68,1.087,3.563,1.606,5.425,1.606c3.278,0,6.49-1.61,8.404-4.566c2.244-3.466,4.952-6.512,8.083-9.116l12.313,21.326
	c2.305,3.993,0.932,9.116-3.061,11.422l-33.774,19.5l-25.156-93.886c-4.047-15.104-19.625-24.103-34.734-20.055l-178.391,47.801
	c-5.334,1.43-8.5,6.913-7.071,12.247c1.43,5.336,6.912,8.501,12.248,7.071l134.896-36.146c9.301,23.251,31.958,38.206,56.471,38.206
	c2.934,0,5.895-0.223,8.863-0.663l11.679,43.586c-4.918-8.445-14.064-14.138-24.52-14.138H28.365
	c-15.639,0-28.36,12.723-28.36,28.36v186.568c0,15.639,12.723,28.36,28.36,28.36h208.017c5.523,0,10-4.478,10-10s-4.477-10-10-10
	H73.386c-3.322-27.839-25.509-49.957-53.382-53.167v-96.957c27.873-3.21,50.06-25.327,53.382-53.167h289.912
	c3.322,27.839,25.508,49.957,53.382,53.167v34.351c-2.21-0.144-4.438-0.225-6.684-0.225c-56.242,0-101.998,45.756-101.998,101.998
	s45.756,101.998,101.998,101.998s101.998-45.756,101.998-101.998C511.993,362.991,480.019,323.312,436.678,311.553z M364.678,33.54
	l21.488-12.406c1.934-1.118,4.186-1.415,6.345-0.835c2.157,0.578,3.96,1.961,5.077,3.896l12.303,21.311
	C393.854,51.389,375.693,46.571,364.678,33.54z M375.356,128.488l23.966-6.422c4.457-1.189,9.048,1.46,10.241,5.912l6.369,23.77
	C398.917,153.282,382.622,143.927,375.356,128.488z M53.176,424.002h-24.81c-4.61,0-8.361-3.751-8.361-8.361v-24.609
	C36.833,393.954,50.154,407.207,53.176,424.002z M20.003,253.681v-24.608c0-4.61,3.751-8.361,8.361-8.361h24.811
	C50.154,237.506,36.833,250.76,20.003,253.681z M383.508,220.712h24.811c4.61,0,8.361,3.751,8.361,8.361v24.608
	C399.85,250.76,386.529,237.506,383.508,220.712z M409.995,492.001c-45.214,0-81.998-36.784-81.998-81.998
	s36.784-81.998,81.998-81.998s81.998,36.784,81.998,81.998S455.209,492.001,409.995,492.001z"/>
<g>
</g>
<g>
</g>
<g>
</g>
<g>
</g>
<g>
</g>
<g>
</g>
<g>
</g>
<g>
</g>
<g>
</g>
<g>
</g>
<g>
</g>
<g>
</g>
<g>
</g>
<g>
</g>
<g>
</g>
</svg>
