<?xml version="1.0" encoding="iso-8859-1"?>
<!-- Generator: Adobe Illustrator 19.0.0, SVG Export Plug-In . SVG Version: 6.00 Build 0)  -->
<svg version="1.1" id="Capa_1" xmlns="http://www.w3.org/2000/svg" xmlns:xlink="http://www.w3.org/1999/xlink" x="0px" y="0px"
	 viewBox="0 0 512 512" style="enable-background:new 0 0 512 512;" xml:space="preserve">
<path style="fill:#3B465C;" d="M512,256c0,66.184-25.119,126.516-66.351,171.948c-5.151,5.684-10.564,11.128-16.196,16.332
	C383.843,486.316,322.926,512,256,512s-127.843-25.684-173.453-67.72c-5.632-5.204-11.045-10.648-16.196-16.332
	C25.119,382.516,0,322.184,0,256C0,114.615,114.615,0,256,0S512,114.615,512,256z"/>
<rect x="335.412" y="31.347" style="fill:#B5423C;" width="94.041" height="137.164"/>
<path style="fill:#E0E2E2;" d="M429.453,183.495V444.28C383.843,486.316,322.926,512,256,512s-127.843-25.684-173.453-67.72V183.495
	l103.309-92.317L256,28.494l70.175,62.715L429.453,183.495z"/>
<polygon style="fill:#CCCCCC;" points="429.453,183.495 429.453,269.49 256,128.408 82.547,269.49 82.547,183.495 185.856,91.178 
	256,34.126 326.175,91.209 "/>
<polygon style="fill:#FB4A75;" points="58.105,255.235 11.952,198.491 255.997,0 500.041,198.491 453.888,255.235 255.997,94.281 
	"/>
<path style="fill:#1BA36C;" d="M273.781,308.09v-50.488c8.398,1.366,14.001,4.17,18.66,6.501c4.071,2.037,7.585,3.796,11.566,3.796
	c11.733,0,18.222-13.046,18.222-22.063c0-6.183-3.497-14.803-20.156-20.761c-7.902-2.826-17.992-4.767-28.293-5.48v-3.005
	c0-6.403-6.583-12.019-14.087-12.019c-7.733,0-13.792,5.279-13.792,12.019v3.97c-14.707,2.222-27.322,7.434-36.697,15.197
	c-12.895,10.678-19.434,25.599-19.434,44.35c0,39.834,30.256,52.313,56.131,61.587v59.825c-13.606-2.391-21.4-9.023-27.808-14.474
	c-4.969-4.227-9.259-7.877-14.825-7.877c-10.422,0-18.814,12.071-18.814,22.063c0,9.236,7.258,19.348,19.415,27.05
	c11.563,7.327,26.329,11.81,42.033,12.826v4.142c0,6.74,6.058,12.019,13.792,12.019c7.505,0,14.087-5.616,14.087-12.019v-5.603
	c34.245-6.419,53.766-29.997,53.766-65.299C327.547,333.204,300.406,318.225,273.781,308.09z M287.556,377.595
	c0,11.268-5.223,18.807-15.548,22.482V352.81C281.766,358.188,287.556,365.052,287.556,377.595z M247.673,258.543v39.825
	c-12.107-5.287-17.912-10.653-17.912-21.218C229.763,273.402,229.764,262.684,247.673,258.543z"/>
<g>
</g>
<g>
</g>
<g>
</g>
<g>
</g>
<g>
</g>
<g>
</g>
<g>
</g>
<g>
</g>
<g>
</g>
<g>
</g>
<g>
</g>
<g>
</g>
<g>
</g>
<g>
</g>
<g>
</g>
</svg>
