<?xml version="1.0" encoding="iso-8859-1"?>
<!-- Generator: Adobe Illustrator 19.0.0, SVG Export Plug-In . SVG Version: 6.00 Build 0)  -->
<svg version="1.1" id="Capa_1" xmlns="http://www.w3.org/2000/svg" xmlns:xlink="http://www.w3.org/1999/xlink" x="0px" y="0px"
	 viewBox="0 0 512.043 512.043" style="enable-background:new 0 0 512.043 512.043;" xml:space="preserve">
<path style="fill:#4CDBC4;" d="M448.939,363.211l-116.651-30.443l-151.307,0.043l-117.877,30.4
	c-37.579,12-63.083,46.933-63.083,86.389v62.421h512V449.6C512.021,410.144,486.517,375.211,448.939,363.211"/>
<g>
	<path style="fill:#06B594;" d="M428.085,512.021H256.235c0.331-1.269,0.544-2.56,0.96-3.733c1.291-3.733,3.317-7.147,5.461-10.453
		c5.44-8.523,12.896-16.629,22.912-15.893c7.371,0.651,14.624,1.184,21.984,1.707c1.707,0.107,3.52,0.331,5.12-0.309
		c2.016-0.747,3.317-2.453,4.683-4.064c5.643-7.147,11.413-14.293,17.163-21.44c2.144-2.667,4.373-5.547,4.811-8.96
		c0.96-7.147-6.08-14.603-2.56-20.789c2.56-4.48,8.853-4.704,13.984-4.171c7.563,0.853,15.253,2.251,22.08,5.771
		c6.816,3.52,12.683,9.163,15.253,16.416c1.269,4.064,1.707,8.437,4.149,11.936c4.267,6.08,13.12,6.517,19.413,10.453
		c5.664,3.52,9.067,9.813,10.88,16.213c1.941,6.315,2.453,13.024,3.851,19.52C426.901,506.795,427.648,509.355,428.085,512.021"/>
	<path style="fill:#06B594;" d="M223.712,485.685c-0.331,10.123-2.667,20.896-11.733,25.376c-0.651,0.309-1.397,0.651-2.037,0.96
		h-108.48c0-0.309-0.107-0.747-0.107-1.163c-0.416-4.267-3.627-7.691-4.683-11.733c-1.291-5.44,1.269-10.997,1.269-16.544
		c0.107-11.936-11.52-22.496-8.96-34.123c0.331-1.397,0.853-2.667,1.92-3.52c0.853-0.747,2.037-0.96,3.211-1.088
		c6.837-0.309,12.267,5.877,15.253,12.064c2.88,6.187,4.683,13.227,9.397,18.251c4.587,4.683,11.189,6.816,17.707,7.563
		c0.96,0.107,2.016,0.107,2.88-0.309c1.067-0.437,1.813-1.504,2.453-2.453c3.733-5.984,7.563-11.829,11.296-17.813
		c3.627-5.771,7.787-11.829,14.08-13.984c3.829-1.269,8-0.96,12.064-0.523c9.163,0.96,18.443,2.539,26.667,6.816
		c8.213,4.171,15.147,11.52,17.163,20.48C223.915,477.792,223.808,481.728,223.712,485.685"/>
	<path style="fill:#06B594;" d="M505.835,416.672c-0.853,13.024-4.48,25.92-12.683,35.936c-2.667,3.211-5.984,6.187-10.144,7.147
		c-4.149,0.853-8.523-0.523-12.789-1.067c-8.544-1.163-17.163,1.291-25.707,1.397c-8.651,0.107-18.453-3.211-21.547-11.211
		c-1.163-3.083-1.163-6.496-1.067-9.92c0.309-6.731,1.269-13.44,2.667-20.064c2.123-9.685,4.896-21.643-2.56-28.245
		c-7.787-6.837-20.587-2.037-29.877-6.624c-10.453-5.12-12.149-19.189-12.267-30.816c-0.107-2.667-0.107-5.333,0.128-8
		l69.003,18.016C475.541,371.648,496.128,391.712,505.835,416.672"/>
	<path style="fill:#06B594;" d="M276.629,332.789c4.875,6.837,2.496,17.312,0.608,26.005c-1.397,6.603-2.357,13.333-2.667,20.043
		c-0.107,3.413-0.107,6.837,1.067,9.941c3.083,8,12.917,11.296,21.547,11.189c8.544-0.107,17.184-2.56,25.707-1.376
		c4.267,0.523,8.651,1.92,12.811,1.067c4.149-0.96,7.456-3.957,10.123-7.147c8.213-10.016,11.829-22.933,12.683-35.957
		c-2.752-7.061-6.453-13.664-10.837-19.787l-16.021-3.979L276.629,332.789z"/>
	<path style="fill:#06B594;" d="M235.339,354.688c-7.584,2.016-15.477,5.333-18.144,10.453c-1.813,3.52-4.48,8.107-8.213,7.04
		c-2.336-0.651-3.52-3.211-5.12-4.811c-3.936-3.936-10.88-2.976-15.253,0.437c-4.48,3.317-7.147,8.416-10.229,13.024
		c-5.771,8.629-13.227,16.213-21.877,22.059c-1.6,1.088-3.317,2.144-5.227,2.037s-3.52-1.397-4.789-2.773
		c-8.331-9.291-3.104-23.691-2.016-36.171c0.629-7.893-0.651-15.584-3.104-22.933l39.584-10.229h62.059
		c0.437,0.853,0.853,1.707,1.291,2.539C248.021,343.168,243.755,352.459,235.339,354.688"/>
	<path style="fill:#06B594;" d="M49.312,449.525c-7.691,2.016-15.584,5.333-18.144,10.453c-1.813,3.52-4.48,8.107-8.309,7.04
		c-2.251-0.651-3.413-3.104-5.12-4.811c-3.936-3.829-10.773-2.88-15.147,0.437c-0.971,0.725-1.824,1.483-2.571,2.336v-15.349
		c0-32.213,16.96-61.44,43.733-77.547c-0.523,2.88-0.96,5.749-1.163,8.629c-0.747,12.704,8.416,34.56,15.584,49.504
		C61.899,438.101,57.728,447.275,49.312,449.525"/>
</g>
<path style="fill:#F8B64C;" d="M331.648,338.421L331.648,338.421v-61.003H180.331v61.067
	C220.608,388.416,291.392,388.395,331.648,338.421"/>
<path id="SVGCleanerId_0" style="fill:#FFD15C;" d="M366.475,129.92v36.267c0,0.629-0.96,35.349-9.504,59.829
	c-9.984,28.608-24.309,55.563-44.896,78.08l-10.56,11.52c-9.6,10.56-23.253,16.523-37.547,16.523h-16
	c-14.187,0-27.851-6.059-37.461-16.523l-10.443-11.52c-14.624-15.893-26.56-34.016-35.413-53.333
	c-7.691-16.544-19.104-48.896-19.104-87.04V130.56c0-21.205,7.147-39.371,9.088-43.648c16.853-39.253,55.872-66.773,101.44-66.773
	c45.333,0,84.373,27.413,101.227,66.56C359.232,91.083,366.475,107.691,366.475,129.92"/>
<g>
	<path style="fill:#F8B64C;" d="M180.021,167.733c1.664,19.147-7.627,35.605-20.747,36.747
		c-13.141,1.141-25.141-13.44-26.837-32.587c-1.664-19.147,7.627-35.605,20.768-36.747
		C166.336,133.984,178.336,148.587,180.021,167.733"/>
	<path style="fill:#F8B64C;" d="M379.605,171.893c-1.685,19.147-13.685,33.728-26.816,32.587
		c-13.141-1.141-22.443-17.6-20.768-36.747c1.685-19.147,13.685-33.728,26.816-32.587
		C371.979,136.288,381.269,152.747,379.605,171.893"/>
</g>
<g>
	<path id="SVGCleanerId_0_1_" style="fill:#FFD15C;" d="M366.475,129.92v36.267c0,0.629-0.96,35.349-9.504,59.829
		c-9.984,28.608-24.309,55.563-44.896,78.08l-10.56,11.52c-9.6,10.56-23.253,16.523-37.547,16.523h-16
		c-14.187,0-27.851-6.059-37.461-16.523l-10.443-11.52c-14.624-15.893-26.56-34.016-35.413-53.333
		c-7.691-16.544-19.104-48.896-19.104-87.04V130.56c0-21.205,7.147-39.371,9.088-43.648c16.853-39.253,55.872-66.773,101.44-66.773
		c45.333,0,84.373,27.413,101.227,66.56C359.232,91.083,366.475,107.691,366.475,129.92"/>
</g>
<g style="opacity:0.1;">
	<g>
		<path style="fill:#40596B;" d="M312.085,304.171l-10.56,11.52c-9.6,10.56-23.253,16.544-37.547,16.544h-16
			c-0.288,0-0.587-0.085-0.875-0.107l39.755,29.92c16.672-5.291,32.224-15.04,44.789-29.184v-0.021v-51.552
			c-0.768,0.416-1.728,0.875-2.581,1.312C323.829,290.101,318.293,297.376,312.085,304.171"/>
	</g>
</g>
<path id="SVGCleanerId_1" style="fill:#3DC9AE;" d="M258.208,0.107C257.483,0,256.768,0,256.021,0
	c-61.045,0-110.453,55.104-110.453,133.664c0,1.856,0.064,3.627,0.107,5.461c1.419-1.355,2.933-2.709,4.523-4.064l-0.288-0.085
	c0,0,60.128-33.269,108.043-28.853c47.915-4.416,106.997,31.691,108.459,33.045c0.043-1.835,0.085-3.648,0.085-5.504
	C366.475,56.043,318.165,1.568,258.208,0.107"/>
<g>
	<path id="SVGCleanerId_1_1_" style="fill:#3DC9AE;" d="M258.208,0.107C257.483,0,256.768,0,256.021,0
		c-61.045,0-110.453,55.104-110.453,133.664c0,1.856,0.064,3.627,0.107,5.461c1.419-1.355,2.933-2.709,4.523-4.064l-0.288-0.085
		c0,0,60.128-33.269,108.043-28.853c47.915-4.416,106.997,31.691,108.459,33.045c0.043-1.835,0.085-3.648,0.085-5.504
		C366.475,56.043,318.165,1.568,258.208,0.107"/>
</g>
<path style="fill:#3DC9AE;" d="M366.421,133.685v5.44c-0.629-0.544-12.683-8-30.187-15.787c-4.48-2.016-9.269-3.957-14.293-5.877
	c-8.213-3.083-16.96-5.856-26.016-8c-3.083-0.747-6.4-1.483-9.504-2.016c-0.107,0-0.309,0.107-0.416,0
	c-1.504-0.213-2.88-0.416-4.373-0.651c-8-1.067-16-1.376-23.691-0.629c-17.163-1.6-36.043,1.685-53.003,6.603
	c-30.421,8.544-55.04,22.187-55.04,22.187l0.309,0.107c-1.6,1.397-3.083,2.667-4.587,4.064v-5.44
	c0-29.877,7.147-56.437,19.413-77.771c10.453-18.357,24.747-32.96,41.376-42.56c14.933-8.651,31.787-13.333,49.6-13.333
	c0.747,0,1.504,0,2.251,0.107c0.416,0,0.725,0,1.163,0.107c15.893,0.437,30.933,4.811,44.48,12.267
	c18.123,10.016,33.6,25.813,44.48,45.984c7.691,13.984,13.12,30.08,15.893,47.893C365.664,115.125,366.421,124.192,366.421,133.685"
	/>
<g style="opacity:0.1;">
	<g>
		<path style="fill:#40596B;" d="M366.379,138.997l-21.664,5.899c-9.643,2.624-20.064,0.288-27.349-6.56
			c-27.723-26.091-61.344-23.712-61.344-23.712s-0.149,0-0.331,0c-3.317-0.149-30.453-0.651-56.064,19.413
			c-0.043,0.021-0.085,0.064-0.107,0.085l153.312,102.4c1.376-3.499,2.912-6.933,4.149-10.496
			c8.544-24.48,9.504-59.211,9.504-59.829L366.379,138.997z"/>
	</g>
</g>
<g>
	<path style="fill:#06B594;" d="M286.037,100.267c0.853,0.747,1.813,1.6,2.773,2.144c-8-1.088-16-1.397-23.691-0.651
		c-17.163-1.6-36.043,1.707-53.003,6.603c-0.224-0.107-0.437-0.309-0.651-0.523c-0.437-0.544-0.853-1.184-0.96-1.92
		c0-0.651,0.213-1.184,0.523-1.707c1.92-2.997,6.187-3.52,9.813-2.997c3.52,0.651,7.04,2.037,10.667,1.504
		c3.413-0.544,6.293-2.773,8.544-5.44c0.309-0.331,0.747-0.747,0.747-1.291c0.213-0.523-0.107-1.163-0.331-1.707
		c-1.376-3.52-2.88-6.912-4.245-10.336c-1.397-3.211-2.773-6.837-1.707-10.251c0.523-2.016,1.92-3.733,3.296-5.333
		c3.211-3.733,6.624-7.253,10.997-9.483c4.267-2.251,9.483-3.104,13.984-1.184c1.92,0.747,3.627,2.037,5.205,3.211
		c4.267,3.189,8.224,7.456,7.477,12.683c-0.651,3.829-1.291,7.691-1.813,11.413c-0.107,0.96-0.331,1.92,0,2.773
		c0.309,1.067,1.067,1.813,1.92,2.56C278.997,93.664,282.517,96.96,286.037,100.267"/>
	<path style="fill:#06B594;" d="M308.939,39.499c0.107,2.667-2.667,4.48-5.12,5.643c-3.733,1.6-7.584,2.976-11.627,3.211
		c-3.957,0.213-8.213-0.747-11.211-3.413c-1.707-1.397-3.083-3.317-5.12-4.267c-3.52-1.6-7.669,0.544-11.627,0.416
		c-3.392-0.107-6.603-2.016-9.163-4.48c-2.56-2.336-4.587-5.227-6.933-7.776c-1.6-1.813-3.413-3.413-4.587-5.461
		c-1.269-2.016-2.016-4.587-1.376-6.816c1.269-3.957,5.856-5.44,9.685-6.837c3.957-1.376,8.331-4.267,7.893-8.416
		c-0.107-0.331-0.107-0.747-0.309-1.088c15.893,0.437,30.933,4.811,44.48,12.267c-0.544,4.373-1.269,8.544-1.813,12.917
		c-0.309,1.813-0.544,3.733,0.213,5.333C303.808,34.272,308.939,35.755,308.939,39.499"/>
	<path style="fill:#06B594;" d="M228.608,60.288c-1.163,4.48-10.976-2.123-12.373,2.56c-0.416,1.376-0.416,2.88-0.309,4.267
		c0.213,8.309-1.504,17.067-6.837,23.563c-1.376,1.707-3.083,3.211-5.227,3.733c-2.229,0.437-4.48-0.309-6.816-0.523
		c-4.48-0.651-8.96,0.651-13.44,0.747c-4.608,0-9.707-1.707-11.317-5.984c-0.651-1.6-0.651-3.413-0.544-5.12
		c0.107-3.627,0.651-7.147,1.397-10.56c1.067-5.109,2.56-11.413-1.397-14.816c-1.813-1.6-4.267-2.037-6.709-2.251
		c10.443-18.357,24.747-32.96,41.376-42.56c3.733,4.373,8.331,8.107,12.917,11.627c5.12,3.957,10.773,8.544,10.88,14.933
		c0.107,3.627-1.6,7.04-2.56,10.56C226.688,53.984,229.899,56.565,228.608,60.288"/>
	<path style="fill:#06B594;" d="M364.288,106.379c-1.397,0.747-2.453,1.707-2.976,2.88c-0.981,1.813-2.357,4.267-4.373,3.627
		c-1.184-0.309-1.813-1.6-2.667-2.453c-2.144-2.123-5.664-1.579-8,0.224c-2.357,1.707-3.755,4.373-5.333,6.816
		c-1.397,2.144-2.997,4.064-4.704,5.877c-2.123,2.123-4.48,4.043-6.912,5.749c-0.747,0.544-1.707,1.088-2.667,1.088
		c-0.981-0.128-1.941-0.747-2.56-1.504c-2.667-2.976-2.667-7.04-2.144-11.211c0.331-2.667,0.853-5.333,1.067-7.776
		c1.184-14.624-10.123-27.104-14.496-41.088c-0.747-2.443-1.269-5.109-0.651-7.563c0.747-2.357,2.997-4.587,5.557-4.373
		c3.083,0.309,4.789,3.627,6.293,6.496c3.083,6.187,7.563,11.733,12.896,16.213c1.813,1.504,4.064,2.997,6.4,2.453
		c3.52-0.747,4.501-5.003,5.12-8.523c0.96-5.024,2.357-10.037,4.267-14.837C356.085,72.459,361.525,88.565,364.288,106.379"/>
</g>
<path style="fill:#4CDBC4;" d="M256.021,90.539c-62.059,1.109-110.357,48.459-110.357,48.459l21.643,5.899
	c9.643,2.624,20.085,0.288,27.349-6.56c27.733-26.101,61.355-23.691,61.355-23.691s33.621-2.421,61.333,23.691
	c7.275,6.859,17.707,9.184,27.349,6.56l21.664-5.899C366.379,138.997,320.789,90.272,256.021,90.539"/>
<rect x="245.163" y="375.691" style="fill:#06B594;" width="21.547" height="136.352"/>
<g>
	<polygon style="fill:#CDD6E0;" points="339.648,334.645 296.021,433.045 256.021,375.915 331.648,332.768 	"/>
	<polygon style="fill:#CDD6E0;" points="256.021,375.915 216.021,433.045 172.608,334.955 180.331,332.811 	"/>
</g>
<g>
	<path style="fill:#ACB3BA;" d="M339.648,334.645l-11.733,26.336c-1.504-1.376-2.773-2.976-4.587-3.829
		c-3.52-1.6-7.691,0.544-11.627,0.416c-3.413-0.107-6.624-2.016-9.184-4.48c-0.853-0.725-1.579-1.579-2.229-2.443l31.349-17.941
		L339.648,334.645z"/>
	<path style="fill:#ACB3BA;" d="M222.517,384.021c0.128,2.667-2.667,4.48-5.109,5.664c-3.755,1.579-7.584,2.976-11.627,3.189
		c-2.795,0.107-5.771-0.309-8.224-1.504l-20.48-46.293c9.707,0.544,19.104,2.795,27.957,6.187
		c7.456,2.891,11.627,10.667,10.667,18.56v0.107c-0.331,1.813-0.544,3.755,0.213,5.333
		C217.419,378.795,222.517,380.288,222.517,384.021"/>
	<path style="fill:#ACB3BA;" d="M242.901,394.688l-24.629,35.211c-1.291-0.651-2.453-1.504-3.52-2.56
		c-0.96-0.853-1.707-1.707-2.453-2.667l-8.853-20.064c2.016-2.016,5.227-3.083,8.107-4.149c3.957-1.397,8.309-4.267,7.893-8.437
		c-0.107-0.309-0.107-0.747-0.309-1.067C227.339,391.061,235.232,392.459,242.901,394.688"/>
	<path style="fill:#ACB3BA;" d="M313.941,392.768l-16.629,37.44c-1.397-0.747-2.795-1.707-3.957-2.88
		c-2.357-2.123-4.171-4.683-6.293-7.04c-0.213-0.213-0.416-0.544-0.651-0.747c-1.6-1.813-3.413-3.413-4.587-5.44
		c-0.651-0.96-1.163-2.123-1.376-3.317c-0.331-1.163-0.331-2.336,0-3.52c1.269-3.936,5.856-5.44,9.685-6.816
		c3.957-1.397,8.331-4.267,7.893-8.437c-0.107-0.309-0.107-0.747-0.309-1.067C303.275,391.061,308.704,391.712,313.941,392.768"/>
</g>
<g>
</g>
<g>
</g>
<g>
</g>
<g>
</g>
<g>
</g>
<g>
</g>
<g>
</g>
<g>
</g>
<g>
</g>
<g>
</g>
<g>
</g>
<g>
</g>
<g>
</g>
<g>
</g>
<g>
</g>
</svg>
